<svg  viewBox="0 0 46 60" fill="none" xmlns="http://www.w3.org/2000/svg">
<path fill-rule="evenodd" clip-rule="evenodd" d="M5.58997 0.0813298C3.34078 0.555892 1.52135 2.18464 0.767455 4.39887L0.5 5.18413V30.0097V54.8353L0.764216 55.6111C1.42672 57.5555 2.90628 59.0591 4.81607 59.7286L5.58997 60H23H40.41L41.1839 59.7286C43.0937 59.0591 44.5733 57.5555 45.2358 55.6111L45.5 54.8353V35.3505V15.8656L45.1995 15.032C45.0342 14.5735 44.7055 13.9028 44.4693 13.5417C43.9428 12.7369 32.5807 1.78003 31.5229 1.0571C31.13 0.788537 30.4701 0.445204 30.0566 0.294137L29.3046 0.0194712L17.6787 0.00162964C11.2844 -0.00823018 5.84447 0.0276877 5.58997 0.0813298ZM27.5362 8.9723L27.5694 14.4625L27.9465 15.2395C28.3853 16.1437 29.0126 16.7646 29.927 17.1996L30.5771 17.5089L36.3323 17.5424L42.0874 17.5759V35.8032C42.0874 56.2752 42.1554 54.7139 41.2228 55.66C40.2931 56.6035 41.6672 56.5373 23 56.5373C4.33275 56.5373 5.70693 56.6035 4.7772 55.66C3.83613 54.7053 3.9126 56.9733 3.9126 30.0097C3.9126 3.04103 3.83578 5.31454 4.77928 4.35732C5.66887 3.45456 5.00879 3.50175 16.8935 3.49142L27.5029 3.48214L27.5362 8.9723ZM36.3323 10.3315C38.4159 12.3314 40.1208 13.9853 40.1208 14.0069C40.1208 14.0285 38.1464 14.0462 35.7332 14.0462C31.8987 14.0462 31.3227 14.023 31.1637 13.8618C31.0053 13.7009 30.982 13.1362 30.982 9.44663V5.21594L31.7629 5.95578C32.1923 6.36262 34.2486 8.33176 36.3323 10.3315ZM9.0906 23.6786C8.6022 23.9402 8.1928 24.6327 8.1928 25.1972C8.1928 25.7796 8.60197 26.4559 9.11524 26.7216C9.56478 26.9543 9.77092 26.9579 22.653 26.9579C35.535 26.9579 35.7411 26.9543 36.1907 26.7216C36.7039 26.4559 37.1131 25.7796 37.1131 25.1972C37.1131 24.6148 36.7039 23.9386 36.1907 23.6728C35.7409 23.44 35.5402 23.4366 22.6287 23.4417C9.80898 23.4467 9.51365 23.4519 9.0906 23.6786ZM9.0906 33.0689C8.6022 33.3305 8.1928 34.023 8.1928 34.5875C8.1928 35.1699 8.60197 35.8462 9.11524 36.1119C9.56478 36.3446 9.77092 36.3482 22.653 36.3482C35.535 36.3482 35.7411 36.3446 36.1907 36.1119C36.7039 35.8462 37.1131 35.1699 37.1131 34.5875C37.1131 34.0051 36.7039 33.3289 36.1907 33.0631C35.7409 32.8303 35.5402 32.8269 22.6287 32.832C9.80898 32.837 9.51365 32.8422 9.0906 33.0689ZM9.0906 42.4572C8.60231 42.721 8.1928 43.4147 8.1928 43.9778C8.1928 44.5641 8.60185 45.2365 9.12253 45.506C9.57068 45.7379 9.74559 45.7449 14.2605 45.7129C18.7742 45.681 18.9455 45.6715 19.2538 45.4378C19.8272 45.0032 20.0368 44.6125 20.0368 43.9778C20.0368 43.3431 19.8272 42.9524 19.2538 42.5178C18.9449 42.2838 18.7801 42.275 14.2288 42.2496C9.72465 42.2245 9.50463 42.2333 9.0906 42.4572Z" fill="#4092F1"/>
</svg>
